<mxfile host="65bd71144e">
    <diagram id="OkD8X6qLrYRkpNnw4DoF" name="第 1 页">
        <mxGraphModel dx="805" dy="609" grid="1" gridSize="10" guides="1" tooltips="1" connect="1" arrows="1" fold="1" page="1" pageScale="1" pageWidth="827" pageHeight="1169" math="0" shadow="0">
            <root>
                <mxCell id="0"/>
                <mxCell id="1" parent="0"/>
                <mxCell id="3" value="" style="rounded=0;whiteSpace=wrap;html=1;" parent="1" vertex="1">
                    <mxGeometry x="50" y="230" width="230" height="500" as="geometry"/>
                </mxCell>
                <mxCell id="4" value="ECS 执行上下文栈&lt;br&gt;" style="text;html=1;align=center;verticalAlign=middle;resizable=0;points=[];autosize=1;strokeColor=none;fillColor=none;" parent="1" vertex="1">
                    <mxGeometry x="50" y="210" width="120" height="20" as="geometry"/>
                </mxCell>
                <mxCell id="5" value="" style="rounded=0;whiteSpace=wrap;html=1;align=left;" parent="1" vertex="1">
                    <mxGeometry x="60" y="630" width="210" height="90" as="geometry"/>
                </mxCell>
                <UserObject label="GEC 全局执行上下文" placeholders="1" name="Variable" id="7">
                    <mxCell style="text;html=1;strokeColor=none;fillColor=none;align=center;verticalAlign=middle;whiteSpace=wrap;overflow=hidden;" parent="1" vertex="1">
                        <mxGeometry x="60" y="610" width="120" height="20" as="geometry"/>
                    </mxCell>
                </UserObject>
                <UserObject label="1. 编译阶段：" placeholders="1" name="Variable" id="8">
                    <mxCell style="text;html=1;strokeColor=none;fillColor=none;align=center;verticalAlign=middle;whiteSpace=wrap;overflow=hidden;" parent="1" vertex="1">
                        <mxGeometry x="60" y="630" width="80" height="20" as="geometry"/>
                    </mxCell>
                </UserObject>
                <UserObject label="VO：GO" placeholders="1" name="Variable" id="9">
                    <mxCell style="text;html=1;strokeColor=none;fillColor=none;align=center;verticalAlign=middle;whiteSpace=wrap;overflow=hidden;" parent="1" vertex="1">
                        <mxGeometry x="60" y="650" width="80" height="20" as="geometry"/>
                    </mxCell>
                </UserObject>
                <mxCell id="10" value="{&lt;br&gt;&amp;nbsp; &amp;nbsp; name: undefined -&amp;gt; name,&lt;br&gt;&amp;nbsp; &amp;nbsp; num1: undefined -&amp;gt; 20,&lt;br&gt;&amp;nbsp; &amp;nbsp; num2: undefined -&amp;gt; 30,&lt;br&gt;&amp;nbsp; &amp;nbsp; result: undefined -&amp;gt; 50,&lt;br&gt;&amp;nbsp; &amp;nbsp; foo: 0xa00&lt;br&gt;}" style="rounded=0;whiteSpace=wrap;html=1;align=left;" parent="1" vertex="1">
                    <mxGeometry x="320" y="230" width="170" height="130" as="geometry"/>
                </mxCell>
                <UserObject label="GO" placeholders="1" name="Variable" id="11">
                    <mxCell style="text;html=1;strokeColor=none;fillColor=none;align=left;verticalAlign=middle;whiteSpace=wrap;overflow=hidden;" parent="1" vertex="1">
                        <mxGeometry x="370" y="210" width="80" height="20" as="geometry"/>
                    </mxCell>
                </UserObject>
                <UserObject label="2. 执行阶段：" placeholders="1" name="Variable" id="12">
                    <mxCell style="text;html=1;strokeColor=none;fillColor=none;align=center;verticalAlign=middle;whiteSpace=wrap;overflow=hidden;" parent="1" vertex="1">
                        <mxGeometry x="60" y="670" width="80" height="20" as="geometry"/>
                    </mxCell>
                </UserObject>
                <UserObject label="console.log(name)" placeholders="1" name="Variable" id="13">
                    <mxCell style="text;html=1;strokeColor=none;fillColor=none;align=center;verticalAlign=middle;whiteSpace=wrap;overflow=hidden;" parent="1" vertex="1">
                        <mxGeometry x="60" y="690" width="130" height="20" as="geometry"/>
                    </mxCell>
                </UserObject>
                <mxCell id="14" value="1. 父级作用域（scoped）&lt;br&gt;2. 执行的代码块" style="rounded=0;whiteSpace=wrap;html=1;align=left;" parent="1" vertex="1">
                    <mxGeometry x="550" y="230" width="120" height="130" as="geometry"/>
                </mxCell>
                <UserObject label="存储函数 0xa00" placeholders="1" name="Variable" id="15">
                    <mxCell style="text;html=1;strokeColor=none;fillColor=none;align=left;verticalAlign=middle;whiteSpace=wrap;overflow=hidden;" parent="1" vertex="1">
                        <mxGeometry x="550" y="210" width="110" height="20" as="geometry"/>
                    </mxCell>
                </UserObject>
                <mxCell id="16" value="{&lt;br&gt;&amp;nbsp; &amp;nbsp; num: undefined&amp;nbsp; &amp;nbsp; &amp;nbsp; &amp;nbsp; &amp;nbsp; &amp;nbsp; &amp;nbsp; &amp;nbsp; &amp;nbsp; &amp;nbsp; m: undefined&amp;nbsp;-&amp;gt; 10&lt;br&gt;&amp;nbsp; &amp;nbsp; &amp;nbsp;bar: 0xb00&lt;br&gt;}" style="rounded=0;whiteSpace=wrap;html=1;align=left;" parent="1" vertex="1">
                    <mxGeometry x="550" y="440" width="140" height="130" as="geometry"/>
                </mxCell>
                <UserObject label="AO 属于foo" placeholders="1" name="Variable" id="17">
                    <mxCell style="text;html=1;strokeColor=none;fillColor=none;align=left;verticalAlign=middle;whiteSpace=wrap;overflow=hidden;" parent="1" vertex="1">
                        <mxGeometry x="550" y="420" width="80" height="20" as="geometry"/>
                    </mxCell>
                </UserObject>
                <mxCell id="18" value="1. 编译阶段：&amp;nbsp;&lt;br&gt;&amp;nbsp; &amp;nbsp; VO： AO；&lt;br&gt;&amp;nbsp; &amp;nbsp; Scoped Chain: VO + Parent Scoped&lt;br&gt;2. 执行阶段：&lt;br&gt;&amp;nbsp; &amp;nbsp; var m = 10" style="rounded=0;whiteSpace=wrap;html=1;align=left;" parent="1" vertex="1">
                    <mxGeometry x="60" y="495" width="210" height="90" as="geometry"/>
                </mxCell>
                <UserObject label="FEC 函数执行上下文 属于foo" placeholders="1" name="Variable" id="19">
                    <mxCell style="text;html=1;strokeColor=none;fillColor=none;align=center;verticalAlign=middle;whiteSpace=wrap;overflow=hidden;" parent="1" vertex="1">
                        <mxGeometry x="50" y="470" width="170" height="20" as="geometry"/>
                    </mxCell>
                </UserObject>
                <mxCell id="20" value="" style="endArrow=classic;html=1;exitX=1;exitY=0.5;exitDx=0;exitDy=0;entryX=0;entryY=0.5;entryDx=0;entryDy=0;" parent="1" source="18" target="16" edge="1">
                    <mxGeometry width="50" height="50" relative="1" as="geometry">
                        <mxPoint x="370" y="480" as="sourcePoint"/>
                        <mxPoint x="420" y="430" as="targetPoint"/>
                    </mxGeometry>
                </mxCell>
                <mxCell id="21" value="" style="endArrow=classic;html=1;entryX=0.5;entryY=1;entryDx=0;entryDy=0;exitX=1;exitY=0.5;exitDx=0;exitDy=0;" parent="1" source="5" target="10" edge="1">
                    <mxGeometry width="50" height="50" relative="1" as="geometry">
                        <mxPoint x="280" y="385" as="sourcePoint"/>
                        <mxPoint x="560" y="515" as="targetPoint"/>
                    </mxGeometry>
                </mxCell>
                <mxCell id="22" value="" style="endArrow=classic;html=1;entryX=0;entryY=0.5;entryDx=0;entryDy=0;exitX=1;exitY=0.75;exitDx=0;exitDy=0;" parent="1" source="10" target="14" edge="1">
                    <mxGeometry width="50" height="50" relative="1" as="geometry">
                        <mxPoint x="370" y="480" as="sourcePoint"/>
                        <mxPoint x="420" y="430" as="targetPoint"/>
                    </mxGeometry>
                </mxCell>
                <mxCell id="23" value="1. 父级作用域（scoped）&lt;br&gt;2. 执行的代码块" style="rounded=0;whiteSpace=wrap;html=1;align=left;" vertex="1" parent="1">
                    <mxGeometry x="720" y="230" width="120" height="130" as="geometry"/>
                </mxCell>
                <UserObject label="存储函数 0xb00" placeholders="1" name="Variable" id="24">
                    <mxCell style="text;html=1;strokeColor=none;fillColor=none;align=left;verticalAlign=middle;whiteSpace=wrap;overflow=hidden;" vertex="1" parent="1">
                        <mxGeometry x="717" y="210" width="110" height="20" as="geometry"/>
                    </mxCell>
                </UserObject>
                <mxCell id="25" value="" style="endArrow=classic;html=1;exitX=1;exitY=0.5;exitDx=0;exitDy=0;entryX=0;entryY=0.75;entryDx=0;entryDy=0;" edge="1" parent="1" source="16" target="23">
                    <mxGeometry width="50" height="50" relative="1" as="geometry">
                        <mxPoint x="480" y="490" as="sourcePoint"/>
                        <mxPoint x="530" y="440" as="targetPoint"/>
                    </mxGeometry>
                </mxCell>
                <mxCell id="27" value="1. 编译阶段：&amp;nbsp;&lt;br&gt;&amp;nbsp; &amp;nbsp; VO： AO；&lt;br&gt;&amp;nbsp; &amp;nbsp; Scoped Chain: VO + foo的AO&lt;br&gt;2. 执行阶段：&lt;br&gt;&amp;nbsp; &amp;nbsp;&amp;nbsp;" style="rounded=0;whiteSpace=wrap;html=1;align=left;" vertex="1" parent="1">
                    <mxGeometry x="60" y="350" width="210" height="90" as="geometry"/>
                </mxCell>
                <UserObject label="FEC 函数执行上下文 属于bar" placeholders="1" name="Variable" id="28">
                    <mxCell style="text;html=1;strokeColor=none;fillColor=none;align=center;verticalAlign=middle;whiteSpace=wrap;overflow=hidden;" vertex="1" parent="1">
                        <mxGeometry x="50" y="330" width="170" height="20" as="geometry"/>
                    </mxCell>
                </UserObject>
                <mxCell id="29" value="{&lt;br&gt;&amp;nbsp; &amp;nbsp;&lt;br&gt;}" style="rounded=0;whiteSpace=wrap;html=1;align=left;" vertex="1" parent="1">
                    <mxGeometry x="390" y="590" width="140" height="130" as="geometry"/>
                </mxCell>
                <UserObject label="AO 属于 bar" placeholders="1" name="Variable" id="30">
                    <mxCell style="text;html=1;strokeColor=none;fillColor=none;align=left;verticalAlign=middle;whiteSpace=wrap;overflow=hidden;" vertex="1" parent="1">
                        <mxGeometry x="390" y="570" width="80" height="20" as="geometry"/>
                    </mxCell>
                </UserObject>
                <mxCell id="31" value="" style="endArrow=classic;html=1;exitX=1;exitY=0.25;exitDx=0;exitDy=0;entryX=0;entryY=0;entryDx=0;entryDy=0;" edge="1" parent="1" source="27" target="29">
                    <mxGeometry width="50" height="50" relative="1" as="geometry">
                        <mxPoint x="370" y="510" as="sourcePoint"/>
                        <mxPoint x="420" y="460" as="targetPoint"/>
                    </mxGeometry>
                </mxCell>
            </root>
        </mxGraphModel>
    </diagram>
</mxfile>